<?xml version="1.0" encoding="iso-8859-1"?>
<!-- Generator: Adobe Illustrator 17.1.0, SVG Export Plug-In . SVG Version: 6.00 Build 0)  -->
<!DOCTYPE svg PUBLIC "-//W3C//DTD SVG 1.1//EN" "http://www.w3.org/Graphics/SVG/1.1/DTD/svg11.dtd">
<svg xmlns="http://www.w3.org/2000/svg" xmlns:xlink="http://www.w3.org/1999/xlink" version="1.1" id="Capa_1" x="0px" y="0px" viewBox="0 0 258.102 258.102" style="enable-background:new 0 0 258.102 258.102;" xml:space="preserve" width="512px" height="512px">
<g>
	<path d="M248.903,71.975c-0.973,0-1.971,0.14-2.968,0.414l-11.279,3.106l-11.713-28.531c-3.317-8.082-13.125-14.657-21.862-14.657   H91.473c-8.736,0-18.544,6.575-21.861,14.657L57.914,75.457l-11.139-3.067c-0.997-0.274-1.995-0.414-2.968-0.414   c-5.33,0-9.198,4.072-9.198,9.683v6.649c0,0.272,0.024,0.54,0.041,0.808c-4.643,2.927-9,6.375-12.976,10.351   C7.698,113.442,0,132.026,0,151.792c0,19.768,7.698,38.351,21.675,52.326c13.976,13.978,32.559,21.676,52.326,21.676   s38.351-7.698,52.328-21.676c8.147-8.146,14.143-17.865,17.741-28.465h68.938v14.154c0,6.549,5.328,11.877,11.877,11.877h15.51   c6.549,0,11.877-5.328,11.877-11.877v-56.68c0-8.118-2.507-20.831-5.59-28.34l-1.891-4.604h1.434   c6.549,0,11.877-5.328,11.877-11.877v-6.649C258.102,76.047,254.233,71.975,248.903,71.975z M84.147,50.58   c1.984-4.835,7.884-8.79,13.11-8.79h98.041c5.227,0,11.125,3.955,13.109,8.79l17.717,43.154c1.986,4.835-0.666,8.79-5.893,8.79   h-91.024c-0.931-1.04-1.884-2.064-2.879-3.059C112.351,85.488,93.768,77.79,74.001,77.79c-0.347,0-0.688,0.021-1.034,0.025   L84.147,50.58z M74.001,203.645c-13.85,0-26.87-5.395-36.664-15.188c-9.794-9.793-15.186-22.814-15.186-36.664   s5.393-26.871,15.186-36.665c9.794-9.793,22.814-15.187,36.664-15.187c13.851,0,26.872,5.394,36.666,15.187   c9.793,9.794,15.187,22.814,15.187,36.665s-5.393,26.871-15.187,36.664C100.872,198.251,87.852,203.645,74.001,203.645z    M229.412,148.318c0,2.613-2.139,4.751-4.751,4.751h-33.653c-2.611,0-4.75-2.138-4.75-4.751v-16.152   c0-2.613,2.139-4.751,4.75-4.751h33.653c2.612,0,4.751,2.138,4.751,4.751V148.318z" fill="#FFFFFF"/>
	<path d="M73.668,134.251c-9.933,0-18.013,8.082-18.013,18.016c0,9.933,8.08,18.013,18.013,18.013   c9.936,0,18.019-8.08,18.019-18.013C91.687,142.333,83.604,134.251,73.668,134.251z" fill="#FFFFFF"/>
	<path d="M73.67,128.544c1.456,0,2.637-1.181,2.637-2.637v-10.063c0-1.456-1.181-2.637-2.637-2.637   c-1.456,0-2.637,1.181-2.637,2.637v10.063C71.033,127.363,72.214,128.544,73.67,128.544z" fill="#FFFFFF"/>
	<path d="M73.67,175.194c-1.456,0-2.637,1.181-2.637,2.637v10.064c0,1.456,1.181,2.637,2.637,2.637c1.456,0,2.637-1.181,2.637-2.637   v-10.064C76.307,176.374,75.126,175.194,73.67,175.194z" fill="#FFFFFF"/>
	<path d="M53.448,135.374c0.515,0.515,1.189,0.773,1.864,0.773s1.35-0.258,1.864-0.773c1.03-1.029,1.03-2.699,0-3.729l-7.115-7.116   c-1.029-1.029-2.699-1.029-3.729,0c-1.03,1.029-1.03,2.699,0,3.729L53.448,135.374z" fill="#FFFFFF"/>
	<path d="M93.892,168.363c-1.029-1.029-2.699-1.029-3.729,0c-1.03,1.029-1.03,2.699,0,3.729l7.117,7.116   c0.515,0.515,1.19,0.772,1.864,0.772s1.35-0.258,1.864-0.772c1.03-1.029,1.03-2.699,0-3.729L93.892,168.363z" fill="#FFFFFF"/>
	<path d="M92.029,136.147c0.675,0,1.35-0.258,1.864-0.773l7.115-7.116c1.03-1.029,1.03-2.699,0-3.729   c-1.029-1.029-2.699-1.029-3.729,0l-7.115,7.116c-1.03,1.029-1.03,2.699,0,3.729C90.68,135.889,91.354,136.147,92.029,136.147z" fill="#FFFFFF"/>
	<path d="M53.448,168.363l-7.115,7.116c-1.03,1.029-1.03,2.699,0,3.729c0.515,0.515,1.189,0.772,1.864,0.772s1.35-0.258,1.864-0.772   l7.115-7.116c1.03-1.029,1.03-2.699,0-3.729C56.147,167.333,54.478,167.333,53.448,168.363z" fill="#FFFFFF"/>
	<path d="M109.697,149.232H99.635c-1.456,0-2.637,1.181-2.637,2.637c0,1.456,1.181,2.637,2.637,2.637h10.063   c1.456,0,2.637-1.181,2.637-2.637C112.334,150.413,111.153,149.232,109.697,149.232z" fill="#FFFFFF"/>
	<path d="M50.346,151.869c0-1.456-1.181-2.637-2.637-2.637H37.646c-1.456,0-2.637,1.181-2.637,2.637   c0,1.456,1.181,2.637,2.637,2.637h10.063C49.165,154.505,50.346,153.325,50.346,151.869z" fill="#FFFFFF"/>
</g>
<g>
</g>
<g>
</g>
<g>
</g>
<g>
</g>
<g>
</g>
<g>
</g>
<g>
</g>
<g>
</g>
<g>
</g>
<g>
</g>
<g>
</g>
<g>
</g>
<g>
</g>
<g>
</g>
<g>
</g>
</svg>
